<svg width="33" height="33" viewBox="0 0 33 33" fill="none" xmlns="http://www.w3.org/2000/svg">
<path d="M31.5883 0.108921L0.532955 15.7011C0.219587 15.8584 0.0159807 16.173 0.000898746 16.5233C-0.0141832 16.8736 0.16145 17.2046 0.460124 17.3883L7.73399 21.8645V32.033C7.73399 32.449 8.00012 32.8183 8.39476 32.95C8.78947 33.0817 9.22395 32.9461 9.47377 32.6135L14.445 25.9944L25.5956 32.8563C25.8662 33.0228 26.2015 33.0458 26.4922 32.9175C26.783 32.7893 26.9923 32.5264 27.0519 32.2142L32.9804 1.15376C32.9824 1.14345 32.9843 1.13314 32.986 1.12276C33.1127 0.339855 32.2914 -0.253303 31.5883 0.108921ZM8.65006 20.1581L2.95058 16.6507L25.6967 5.23046L8.65006 20.1581ZM9.66738 29.136V21.8372L25.6804 7.81482C25.3287 8.28307 10.0862 28.5783 9.66738 29.136ZM25.4152 30.4752L15.6109 24.4417L30.3 4.88351L25.4152 30.4752Z" fill="#60686C"/>
</svg>
